<svg id="Layer_1" xmlns="http://www.w3.org/2000/svg" viewBox="0 0 16383 3080"><style>.st0{fill:red;stroke:#000;stroke-miterlimit:10}</style><path class="st0" d="M0 1781.3c492.4-258.2 922.9-366.3 1216.3-416.7 150.1-25.8 1113.4-181.8 2083.3 116.7 137.8 42.4 328.1 110.1 616.7 150 216.6 30 463.6 40.8 900 0 529.3-49.4 931.5-136.8 1066.7-166.7 1337.5-295.2 1270.3-393.1 1783.3-450 847-94 1571.2 112.8 1866.7 200 693.2 204.6 897.4 427.3 1550 466.7 334.7 20.2 447.4-28.4 983.3-66.7 637.7-45.6 1162.2-25.7 1516.7 0 368.6-75.2 1044.3-199.3 1716.7-233.3 173.5-8.8 389.9-13.7 650 66.7 279.7 86.5 480.5 231.6 600 333.3"/></svg>